/* XPM */
static char *_79bb7889c754b95cd94f52b622beef4ZSOPuUHsR9GVw62Y[] = {
/* columns rows colors chars-per-pixel */
"80 112 15 1 ",
"  c None",
". c #3F2832",
"X c #4E2528",
"o c #682728",
"O c #792E2F",
"+ c #743F39",
"@ c #AD3E3B",
"# c #91533B",
"$ c #B86F50",
"% c #C9594A",
"& c #DE726C",
"* c #0069AA",
"= c #0098DC",
"- c #00CDF9",
"; c #0CF1FF",
/* pixels */
"                                                                                ",
"                                                                                ",
"                                                                                ",
"                                                                                ",
"                                                                                ",
"                                     ......                                     ",
"                                    .$$$#$#.                                    ",
"                                    .$#####.                                    ",
"                                    .$#####.                                    ",
"                                   X.$#####.X                                   ",
"                                  XO.$#####.oX                                  ",
"                                 X%O.$#####.oOX                                 ",
"                                X%%O.$#####.oOOX                                ",
"                               XX%%O.$#####.oOOXX                               ",
"                              X%X%&X.$#####.XOOXOX                              ",
"                             X%%X&XO.$#####.oXOXOOX                             ",
"                            X%%%XX%O.$#####.oOXXOOOX                            ",
"                           X%%%%X%%O.$#####.oOOXOOOOX                           ",
"                          X%%%%X%%%O.$#####.oOOOXOOOOX                          ",
"                         XX&%%X%%%%X.$#####.XOOOOXOO@XX                         ",
"                        X%X&&X%%%%XO.$#####.oXOOOOX@@XOX                        ",
"                       X%%X&XX%%%X%O.$#####.oOXOO@XX@XOOX                       ",
"                      X%%%XX%X%&X%%O.$#####.oOOX@@XOXXOOOX                      ",
"                     X%%%%X%%X&XX%%O.$#####.oOOXX@XOOXOOOOX                     ",
"                    XX%%%X%%%XX%X%&X.$#####.XOOXOXXOOOXOOOXX                    ",
"                   X%X%&X%%%%X%%X&XO.$#####.oXOXOOXOOOOX@OXOX                   ",
"                  X%%X&XX%%%X%%%XX%O.$#####.oOXXOOOXOOOXX@XOOX                  ",
"                 X%%%XX%X%&X%%%%X%%O.$#####.oOOXOOOOX@OXOXXOOOX                 ",
"                X%%%%X%%X&X%%%%X%%%O.$#####.oOOOXOOOOX@XOOXOOOOX                ",
"               XX&%&X%%%XXX&%%X%%%%X.$#####.XOOOOXOOOXXXOOOXOO@XX               ",
"              X%X&&X%%%%X%X&&X%%%%XO.$#####.oXOOOOX@OXOXOOOOX@@XOX              ",
"             X%%X&XX%%%X%%X&XX&%%X%O.$#####.oOXOOOXX@XOOXOOOXX@XOOX             ",
"            X%%%XX%X%&X%%%XX%X&&X%%O.$#####.oOOX@OXOXXOOOX@OXOXXOOOX            ",
"           X%%%%X%%X&X%%%%X%%X&XX%%O.$#####.oOOXX@XOOXOOOOX@XOOXOOOOX           ",
"          XX%%&X%%%XXX%%&X%%%XX%X%&X.$#####.XOOXOXXOOOX@O@XXXOOOX@O@XX          ",
"         X%X%&X%%%%X%X%&X%%%%X%%X&XO.$#####.oXOXOOXOOOOX@@XOXOOOOX@@XOX         ",
"        X%%X&XX%%%X%%X&XX&%%X%%%XX%O.$#####.oOXXOOOXOOOXX@XOOXOOOXX@XOOX        ",
"       X%%%XX%X%&X%%%XX%X&&X%%%%X%%O.$#####.oOOXOOOOX@OXOXXOOOX@OXOXXOOOX       ",
"       X%%%X%%X&X%%%%X%%X&X%%%%X%%%O.$#####.oOOOXOOOOX@XOOXOOOOX@XOOX@O@X       ",
"       X%&X%%%XXX%%%X%%%XXX%%%X%%%%X.$#####.XOOOOXOO@XXXOOOXOO@XXXOOOX@@X       ",
"       X&X%%%%X%X%&X%%%%X%X%&X%%%%XO.$#####.oXOOOOX@@XOXOOOOX@@XOXOOOOX@X       ",
"       XXX&%%X%%X&XX%%%X%%X&XX&%%X%O.$#####.oOXOOOXX@XOOXOOOXX@XOOXOOOXXX       ",
"         X&&X%%%XX%X%&X%%%XX%X&&X%%O.$#####.oOOX@OXOXXOOOX@OXOXXOOOX@OX         ",
"         X&X%%%%X%%X&X%%%%X%%X&XX%%O.$#####.oOOXX@XOOXOOOOX@XOOXOOOOX@X         ",
"         XXX%%%X%%%XXX%%%X%%%XX%X%&X.$#####.XOOXOXXOOOXOOOXXXOOOXOOOXXX         ",
"         X%X%&X%%%%X%X%&X%%%%X%%X&XO.$#####.oXOXOOXOOOOXOOXOXOOOOX@OXOX         ",
"        X%%X&XX&%%X%%X&XX%%%X%%%XX%O.$#####.oOXXOOOXOO@XXOXOOX@O@XX@XOOX        ",
"       X%%%XX%X&&X%%%XX%X%&X%%%%X%%O.$#####.oOOXOOOOX@@XOXXOOOX@@XOXXOOOX       ",
"       X%%%X%%X&X%%%%X%%X&X%%%%X%%%O.$#####.oOOOXOOOOX@XOOXOOOOX@XOOXOOOX       ",
"       X%&X%%%XXX%%%X%%%XXX%%%X%%%%..$#####..OOOOXOOOXXXOOOXOOOXXXOOOX@OX       ",
"       X&X%%%%X%X%&X%%%%X%X%&X%%%%.+.$$$#$$.+.OOOOX@OXOXOOOOX@OXOXOOOOX@X       ",
"       XXX&%&X%%X&XX&%%X%%X&XX&%%.++.++++++.++.OOOXX@XOOXOOOXX@XOOXOO@XXX       ",
"         X&&X%%%XX%X&&X%%%XX%X&&.++..++++++..++.@OXOXXOOOX@OXOXXOOOX@@X         ",
"         X&X%%%%X%%X&X%%%%X%%X&.++...++++++...++.@XOOXOOOOX@XOOXOOOOX@X         ",
"         XXX&%%X%%%XXX%%%X%%%X.++.+.+......+.+.++.XOOOXOOOXXXOOOXOOOXXX         ",
"         X%X&&X%%%%X%X%&X%%%%.++.++.+.++++.+.++.++.OOOOX@OXOXOOOOX@OXOX         ",
"        X%%X&XX%%%X%%X&XX&%&.++.+++.+.++++.+.+++.++.@O@XX@XOOXOOOXX@XOOX        ",
"       X%%%XX%X%&X%%%XX%X&&.++..+++.#.++++.+.#++..++.@@XOXXOOOX@OXOXXOOOX       ",
"       X%%%X%%X&X%%%%X%%X&.++.+.+#+.#.###+.+.##+.+.++.@XOOXOOOOX@XOOXOOOX       ",
"       X%&X%%%XXX%%%X%%%X.++.++.##+.#.###+.+.##+.++.++.XOOOXOO@XXXOOOX@OX       ",
"       X&X%%%%X%X%&X%%%%.++.+++.##+.#.###+.+.##+.+++.++.OOOOX@@XOXOOOOX@X       ",
"       XXX%%%X%%X&XX%%%.++..+++.#++.#.###+.+.##+.#++..++.@O@XX@XOOXOO@XXX       ",
"         X%&X%%%XX%X%&.++.+.+#+.##+.#.$##+.+.#++.##+.+.++.@@XOXXOOOX@@X         ",
"         X&X%%%%X%%X&.++.++.##+.##+.#.$##+.+.##+.##+.++.++.@XOOXOOOOX@X         ",
"         XXX&%&X%%%X.++.+++.##+.##+.#.$##+.+.##+.#++.+++.++.XOOOXOO@XXX         ",
"         X%X&&X%%%%.++..+++.+#+.##+.#.$##+.+.##+.##+.#++..++.OOOOX@@XOX         ",
"        X%%X&XX%%%.++.+.+#+.##+.##+.#.$##+.+.##+.##+.##+.+.++.OOOXX@XOOX        ",
"       X%%%XX%X%&.++.++.##+.##+.##+.#.$##+.+.##+.##+.##+.++.++.@OXOXXOOOX       ",
"       X%%%X%%X&.++.+++.#++.##+.+#+.#.$##+.+.##+.##+.##+.+++.++.@XOOXOOOX       ",
"       X%&X%%%X.++..+++.##+.##+.##+.#.$##+.+.##+.##+.##+.#++..++.XOOOX@OX       ",
"       X&X%%%%.++.+.+#+.##+.##+.##+.#.$##+.+.+#+.##+.##+.##+.+.++.OOOOX@X       ",
"       XXX&%&.++.++.##+.##+.##+.##+.#.$##+.+.##+.##+.#++.##+.++.++.OO@XXX       ",
"         X&&.++..++.##+.##+.#++.##+.#.$##+.+.##+.##+.##+.##+.++..++.@@X         ",
"         X&.++.+.++.#++.##+.##+.##+.#.$##+.+.##+.##+.##+.##+.#+.+.++.@X         ",
"         X.++.++.#+.##+.##+.##+.##+.#.$##+.+.#++.##+.##+.#++.#+.++.++.X         ",
"         .++.+++.#+.##+.##+.##+.##+.#.$##+.+.##+.##+.##+.##+.#+.+++.++.         ",
"         .+.++#+......................$##+......................+#++.+.         ",
"         ...+##+.####################.$##+.####################.+##+...         ",
"           .###+.++++++++++++++++++++.$##+.++++++++++++++++++++.+###.           ",
"           .###+......................$##+......................+###.           ",
"           .###+.####################.$##+.####################.+###.           ",
"           .$##+.#+################+#.$##+.#+################+#.+##$.           ",
"           .$##+.###..............###.$##+.####################.+##$.           ",
"           .$##+.++.$$$#$$#$######.++.$##+.++++++++++++++++++++.+##$.           ",
"           .$##+....$            #....$##+......................+##$.           ",
"           .$##+.+#.$            #.+#.$##+.####.$$$#$$#$##.####.+##$.           ",
"           .$##+.+#.#            #.+#.$##+.#+##.$........+.##+#.+##$.           ",
"           .$##+.+#.$            #.+#.$##+.####.$.=;;-;=.+.####.+##$.           ",
"           .$##+.++.$            #.++.$##+.++++.#.;;-;--.+.++++.+##$.           ",
"           .$##+....#            #....$##+......$.;-;---.+......+##$.           ",
"           .$##+.+#.$            #.+#.$##+.####.$.-;---=.+.####.+##$.           ",
"           .$##+.+#.$            #.+#.$##+.#+##.#.;---=-.+.##+#.+##$.           ",
"           .$##+.+#.#            #.+#.$##+.####.$.---=-=.+.####.+##$.           ",
"           .$##+.++.#            #.++.$##+.++++.$.--=-==.+.++++.+##$.           ",
"           .$##+....$            #....$##+......#.-=-===.+......+##$.           ",
"           .$##+.+#.#            #.+#.$##+.####.$.=-===*.+.####.+##$.           ",
"           .$##+.+#.#            #.+#.$##+.#+##.#.-===**.+.##+#.+##$.           ",
"           .$##+.+#.#            #.+#.$##+.####.#........+.####.+##$.           ",
"           .$##+.++.#            #.++.$##+.++++.#+++++++++.++++.+##$.           ",
"           .$##+....#            #....$##+......................+##$.           ",
"           .$##+.+#.#            #.+#.$##+.####################.+##$.           ",
"           .$##+.+#.#            #.+#.$##+.#+################+#.+##$.           ",
"           .$##+.+#.#            #.+#.$##+.####################.+##$.           ",
"           .$##+.++.#            #.++.$##+.++++++++++++++++++++.+##$.           ",
"           .$$#+.....            .....$$#+......................+#$$.           ",
"            ....                      ....                      ....            ",
"                                                                                ",
"                                                                                ",
"                                                                                ",
"                                                                                ",
"                                                                                ",
"                                                                                "
};
