/* XPM */
static char *_4623cb26d3b4be1e57653a5f3c4ea0cpeYjJqbFmIl5gZch[] = {
/* columns rows colors chars-per-pixel */
"31 31 11 1 ",
"  c None",
". c #0E071B",
"X c #5D2C28",
"o c #134C4C",
"O c #1E6F50",
"+ c #704643",
"@ c #33984B",
"# c #D29F70",
"$ c #0069AA",
"% c #0098DC",
"& c #F6CA9F",
/* pixels */
"                               ",
"                               ",
"                               ",
"                               ",
"                               ",
"            .......            ",
"           .X++X++X.           ",
"          .X+++++++X.          ",
"          .++++X++++.          ",
"         .X+++XXX+++X.         ",
"         .+++XX.X++++.         ",
"         .+++X.#.X+++.         ",
"         .XX..###..XX.         ",
"          ..#.&&&.#..          ",
"          .##.&&&.##.          ",
"           .&&&&&&&.           ",
"           .o&&&&&o.           ",
"           .oO@@OOo.           ",
"          .&&O@@@O&&.          ",
"          .&&OO@@O&&.          ",
"           .%%%$%%%.           ",
"           .%%$.$%%.           ",
"           .XX. .XX.           ",
"                               ",
"                               ",
"                               ",
"                               ",
"                               ",
"                               ",
"                               ",
"                               "
};
